<svg id="logo--etc" class="etc-svg-logo" version="1.1" xmlns="http://www.w3.org/2000/svg" width="494" height="251" viewBox="0 0 494 251" fill="currentColor" aria-labelledby="svg-logo--etc--title svg-logo--etc--description" focusable="false" role="img"><title id="svg-logo--etc--title">Enhanced Telecommunications Corporation logo</title><desc id="svg-logo--etc--description">The Takeoff Logo in SVG form</desc><g id="logo-mark" fill="#231f20"><g id="legal-mark"><path d="M473.2 143l.9.1a7.7 7.7 0 0 0 .9-.1c.6 4.5 1 8.2 1.7 11.5h-3.3c-.1-2.6-.5-5.2-.8-7.8l-4.5 7.8a1.8 1.8 0 0 0-.7 0l-4.4-7.6a64.6 64.6 0 0 0-.9 7.6h-1.9c.8-3.4 1.4-7.2 2.1-11.5a7 7 0 0 0 .9.1 8 8 0 0 0 .8-.1l4.6 7.9c1.4-2.4 3.1-5 4.6-7.9M457.4 145.2a2.3 2.3 0 0 0-2.3-1.5c-1.6 0-2.2.7-2.2 1.7 0 2.2 6 1.8 6 5.7 0 2-2.1 3.6-5.2 3.6a6.8 6.8 0 0 1-3.3-.7 13.1 13.1 0 0 0 .6-2.1h.4a2.6 2.6 0 0 0 2.8 1.8c1.2 0 2.3-.5 2.3-1.7 0-2.7-6-1.7-6-5.8 0-2 1.6-3.5 4.6-3.5a5.7 5.7 0 0 1 3.2.8l-.7 1.7z"></path></g><path fill="#00529b" d="M486.4 37.3s22.6-14-45.6-2.9a353.5 353.5 0 0 0-66.3 17.2 486.8 486.8 0 0 1 61.3-13.8c61.3-9.3 50.5-.5 50.5-.5"></path><path fill="#231f20" d="M341.6 80.9s-19.2-57 24-70.7c0 0 43.3-13.6 66.4 49 0 0 31.8-10.8 39.3-15 0 0-21.5-52-95.9-43.1 0 0-74.1 7.2-72.8 80.4 0 0 6.8 4.4 39-.6z"></path><path fill="#00529b" d="M301.3 68.8s-13 14.8 15.3 14.2c0 0 24.1 2 115.9-24.3 0 0 69.3-22.1 46.2-25.5 0 0-11.7 0-12.7.6l-2.3-2.5s27.7-3.7 29 2.5c0 0 .4 7.8-35.4 23 0 0-74.9 35.2-149.8 40.2 0 0-48.4 5-35.8-12 0 0 7.5-9 29.6-16.2z"></path><path d="M356.6 111.5s-25.5 7.2-39.8 9.5c0 0 28.5 44.2 90.3 35 0 0 47.6-7.3 72.8-53.4l-1.9-1.8s-32.7 30-72.8 30.5c0 0-28.8 1.7-48.6-19.8z"></path><path fill="#00529b" d="M275.8 100.6s-19.8 16.6 25 15.5c0 0 22.8 1.4 81.5-18 0 0 59.1-20.6 93.5-41 0 0 26.5-15.4 15.5-21 0 0-4.7 16-67.7 37.2 0 0-105.2 39.8-147.8 27.3z"></path></g><g id="logo-text" fill="#231f20"><g id="corporation"><path d="M160.9 238.8l-1.8-4.6c-2 2.5-6.1 4.8-12.2 4.8-7.7 0-10.8-5.8-9.7-12s6-12 13.7-12c5.8 0 9.4 2.4 10.6 4.8l3.2-4.5c-3.4-2-7.3-3.2-13.3-3.2-11.6 0-22.1 6.6-23.5 14.9s7 15 18.5 15a31.2 31.2 0 0 0 14.5-3.3M192.9 231.6c1-5.8-4.9-10.5-13-10.5s-15.5 4.7-16.4 10.5 4.8 10.4 13 10.4 15.4-4.7 16.4-10.4m-5.4 2.7a4.5 4.5 0 0 1-2.3 3 8.2 8.2 0 0 1-4.4 1.2 13.5 13.5 0 0 1-8.2-3.4c-2.7-2.2-4-4.3-3.7-6.2a4.5 4.5 0 0 1 2.2-3 7.8 7.8 0 0 1 4.5-1.3 13.4 13.4 0 0 1 8.2 3.3c2.7 2.2 4 4.4 3.7 6.3M215 227.3l1-6.2a14.5 14.5 0 0 0-10.7 4.8l.8-4.8h-7.5l-3.4 21h7.5l2-12.8a9.6 9.6 0 0 1 6.8-2.7 8.1 8.1 0 0 1 3.5.7M248 231.6c1-5.8-4.8-10.5-12.8-10.5-3.2 0-6.3.8-7.5 2l.3-2h-7.5l-5 30h7.6l1.8-11.1c.9 1 3.1 2 6.8 2 8 0 15.4-4.6 16.4-10.4m-7.6 0c-.7 4.9-4 8-8.4 8s-6.6-3.1-5.8-8 4-8 8.5-8 6.6 3.1 5.7 8M280.7 231.6c.9-5.8-4.9-10.5-13-10.5s-15.5 4.7-16.5 10.5 5 10.4 13 10.4 15.5-4.7 16.5-10.4m-5.5 2.7a4.4 4.4 0 0 1-2.2 3 8.2 8.2 0 0 1-4.4 1.2 13.4 13.4 0 0 1-8.3-3.4c-2.6-2.2-4-4.3-3.6-6.2a4.5 4.5 0 0 1 2.2-3 7.7 7.7 0 0 1 4.4-1.3 13.3 13.3 0 0 1 8.3 3.3c2.7 2.2 4 4.4 3.6 6.3M302.8 227.3l1-6.2a14.5 14.5 0 0 0-10.7 4.8l.8-4.8h-7.5L283 242h7.5l2.1-12.8a9.6 9.6 0 0 1 6.7-2.6 8.3 8.3 0 0 1 3.5.7M329.3 240.4l-1.6-1.3a2.6 2.6 0 0 1-1.4.4c-1 0-1.8-.6-1.7-1.4l1.8-10.8c.7-4-3.1-6.2-10.7-6.2a20 20 0 0 0-9.7 2.3l1 3a13.9 13.9 0 0 1 8.3-3c2.3 0 4 1.6 3.7 3.2l-.4 2.2c-9.2 1.1-16.7 2.8-17.5 7.6-.5 3 2.6 5.6 7 5.6 4.8 0 7.8-.8 10-2.2a7.2 7.2 0 0 0 5.7 2.2 10.2 10.2 0 0 0 5.5-1.6m-12-4c-.2 1.7-2.5 3-4.6 3-2.4 0-4-1.4-3.7-3 .4-2.5 4.7-5 9.2-5.5zM347.4 223.5l.4-2.4H342l1-6h-3c-.5 3.2-4.8 6-9.4 6H329l-.4 2.4h5.4l-2.2 13.3c-.5 2.9 2.8 5.2 6.5 5.2a10.3 10.3 0 0 0 5.5-1.6l-1.6-1.3a2.5 2.5 0 0 1-1.4.4c-1 0-1.8-.6-1.6-1.4l2.4-14.6zM360 215.1c.3-1.6-1.5-3-3.8-3s-4.3 1.3-4.6 3 1.4 3 3.7 3 4.4-1.3 4.7-3m-4.9 26.9l3.4-21H351l-3.5 21zM390.2 231.6c1-5.8-4.8-10.5-13-10.5s-15.5 4.7-16.4 10.5 4.8 10.4 13 10.4 15.5-4.7 16.4-10.4m-5.4 2.7a4.5 4.5 0 0 1-2.2 3 8.3 8.3 0 0 1-4.5 1.2 13.4 13.4 0 0 1-8.2-3.4c-2.7-2.2-4-4.3-3.7-6.2a4.5 4.5 0 0 1 2.3-3 7.9 7.9 0 0 1 4.4-1.3 13.4 13.4 0 0 1 8.2 3.3c2.7 2.2 4 4.4 3.7 6.3M418 242l2.4-14.5c.6-3.5-3-6.5-7.9-6.5a14.5 14.5 0 0 0-9.6 3.5l.6-3.5H396l-3.4 21h7.4l2.4-14.3a10.1 10.1 0 0 1 6.8-3c2.3 0 4 1.2 3.7 2.9l-2.3 14.4z"></path></g><g id="telecommunications"><path d="M29.4 176.6l.5-3H.5l-.5 3h10.5l-4.5 27h8.4l4.5-27h10.5z"></path><path d="M49.4 193c1-5.7-4.9-10.4-13-10.4S21 187.3 20 193s4.8 10.4 13 10.4a21.9 21.9 0 0 0 10.4-2.2l-1-3c-2.2 2-5.1 2.8-9 2.8-4.3 0-6.1-2.8-6-6.9h21.7a8.9 8.9 0 0 0 .3-1.1m-7.4-1.3H27.8c1.3-4.5 4.4-6.8 8.2-6.8s6.2 2.4 6 6.9M59 203.5l5-29.9h-7.5l-5 30h7.6zM94 193c1-5.7-4.8-10.4-13-10.4s-15.5 4.7-16.4 10.5 4.8 10.4 13 10.4a21.9 21.9 0 0 0 10.4-2.2l-1-3c-2.2 2-5 2.8-9 2.8-4.2 0-6-2.8-6-6.9h21.7a7.2 7.2 0 0 0 .3-1.1m-7.4-1.3H72.4c1.3-4.5 4.5-6.8 8.3-6.8s6.2 2.4 6 6.8M119.4 201.3l-1-3c-2 2.1-4.4 2.8-8 2.8-5 0-6.5-3.6-5.8-8 .8-5 4-8.1 8.4-8.1 3.6 0 6 .6 7.2 2.8l1.9-3a16.9 16.9 0 0 0-8.6-2.2c-8.2 0-15.5 4.6-16.5 10.5s4.9 10.4 13 10.4a21.3 21.3 0 0 0 9.4-2.2M150.6 193c1-5.7-4.8-10.4-13-10.4s-15.4 4.7-16.4 10.5 4.9 10.4 13 10.4 15.5-4.7 16.4-10.4m-5.4 2.7a4.6 4.6 0 0 1-2.2 3 8.4 8.4 0 0 1-4.5 1.2 13.4 13.4 0 0 1-8.2-3.4c-2.7-2.1-4-4.3-3.7-6.2a4.7 4.7 0 0 1 2.3-3 8 8 0 0 1 4.4-1.3 13.5 13.5 0 0 1 8.2 3.3c2.7 2.2 4 4.5 3.7 6.4M194.7 203.5l2.4-14.8c.5-3.1-2.6-6.1-7.5-6.1a15 15 0 0 0-10 3.6c-1.1-2.1-3.7-3.6-7.3-3.6a13.3 13.3 0 0 0-9.1 3.4l.5-3.4h-7.5l-3.4 21h7.5l2.3-14.4c2-2 3.7-3.1 6-3.1s4 1.3 3.7 3l-2.3 14.4h7.6l2.3-14.3c2-2 3.6-3.1 6-3.1s3.9 1.3 3.6 3l-2.3 14.5zM241.3 203.5l2.5-14.8c.5-3.1-2.6-6.1-7.6-6.1a15 15 0 0 0-10 3.6c-1-2.1-3.6-3.6-7.2-3.6a13.3 13.3 0 0 0-9.2 3.4l.6-3.4h-7.5l-3.5 21h7.5l2.4-14.4c2-2 3.7-3.1 6-3.1s4 1.3 3.7 3l-2.4 14.5h7.6l2.3-14.3c2-2 3.6-3.2 6-3.2s4 1.4 3.7 3l-2.4 14.5zM271.6 203.5l3.5-21h-7.5l-2.4 14.4a10 10 0 0 1-6.8 3c-2.3 0-4-1.3-3.7-3l2.4-14.4h-7.6l-2.3 14.5c-.6 3.5 3 6.4 7.9 6.4a14.4 14.4 0 0 0 9.6-3.4l-.6 3.4zM302 203.5l2.4-14.5c.6-3.5-3-6.4-8-6.4a14.5 14.5 0 0 0-9.6 3.4l.6-3.4h-7.5l-3.5 21h7.5l2.4-14.4a10.1 10.1 0 0 1 6.8-3.1c2.3 0 4 1.3 3.7 3l-2.3 14.5zM319.1 176.6c.3-1.7-1.4-3-3.7-3s-4.4 1.3-4.7 3 1.4 3 3.7 3 4.5-1.3 4.7-3m-4.9 27l3.5-21h-7.5l-3.5 21zM342.1 201.3l-.9-3c-2 2.1-4.5 2.8-8 2.8-4.9 0-6.5-3.6-5.8-8 .8-5 4-8.1 8.5-8.1 3.5 0 5.8.6 7 2.8l2-3a17 17 0 0 0-8.6-2.2c-8.2 0-15.5 4.6-16.4 10.5s4.8 10.4 13 10.4a21.4 21.4 0 0 0 9.3-2.2M372.6 202l-1.6-1.4a2.5 2.5 0 0 1-1.4.4c-1 0-1.8-.6-1.7-1.4l1.8-10.8c.7-4-3.1-6.2-10.7-6.2a20.2 20.2 0 0 0-9.7 2.3l1 3a13.5 13.5 0 0 1 8.3-3c2.3 0 4 1.6 3.7 3.2l-.4 2.2c-9.2 1.1-16.7 2.8-17.5 7.6-.5 3.1 2.6 5.6 7 5.6 4.9 0 7.8-.8 10.1-2.2a7 7 0 0 0 5.6 2.2 10 10 0 0 0 5.5-1.5m-11.9-4.1c-.3 1.8-2.5 3-4.6 3-2.4 0-4-1.3-3.8-3 .4-2.5 4.8-5 9.3-5.5zM390.6 185l.4-2.4h-5.8l1-6h-3c-.5 3.3-4.7 6-9.4 6h-1.7l-.4 2.4h5.5l-2.2 13.3c-.5 2.9 2.7 5.2 6.5 5.2a10.1 10.1 0 0 0 5.5-1.6l-1.6-1.3a2.6 2.6 0 0 1-1.4.4c-1 0-1.8-.6-1.6-1.3l2.4-14.7zM403 176.6c.3-1.7-1.4-3-3.7-3s-4.4 1.3-4.6 3 1.3 3 3.6 3 4.4-1.3 4.7-3m-4.9 27l3.5-21H394l-3.4 21zM433.1 193c1-5.7-4.8-10.4-13-10.4s-15.5 4.7-16.4 10.5 4.9 10.4 13 10.4 15.5-4.7 16.4-10.4m-5.4 2.7a4.3 4.3 0 0 1-2.2 3 8.3 8.3 0 0 1-4.5 1.2 13.5 13.5 0 0 1-8.2-3.4c-2.7-2.1-4-4.2-3.7-6.2a4.6 4.6 0 0 1 2.2-3 8 8 0 0 1 4.5-1.3 13.5 13.5 0 0 1 8.2 3.4c2.7 2.1 4 4.4 3.7 6.3M460.8 203.5l2.4-14.5c.6-3.5-3-6.4-8-6.4a14.5 14.5 0 0 0-9.6 3.4l.6-3.4h-7.5l-3.5 21h7.6l2.3-14.4a10.1 10.1 0 0 1 6.8-3.1c2.3 0 4 1.3 3.8 3l-2.4 14.5zM487.5 197.1c.5-2.8-1.7-4.8-4.7-5.7l-6.8-1.9c-1-.3-1.8-1.1-1.6-2 .2-1.5 2.1-2.5 4.3-2.5 3.3 0 6 .4 7.5 2.4l2-2.9c-1.9-1.2-5.5-2-9.1-2-6.3 0-11 2.7-11.6 6.7-.4 2.4 1.5 4.3 4 5l7.5 2c1.2.4 2 1.2 1.8 2.3-.3 1.5-2.3 2.6-4.8 2.6-4.4 0-6.8-1.2-8.6-3.2l-2.3 3.2c2.4 1.5 6.6 2.4 10.5 2.4 6.5 0 11.3-2.8 12-6.4"></path></g><g id="enhanced"><path d="M94.4 167.6l.5-3H80.2l1.7-10.4h14.7l.5-3H82.5l1.7-10.5h14.7l.4-3h-23l-5 30h23.1zM123.7 167.6l2.4-14.5c.6-3.5-3-6.4-8-6.4a14.4 14.4 0 0 0-9.5 3.4l.5-3.4h-7.5l-3.5 21h7.6l2.3-14.4a10 10 0 0 1 6.8-3.2c2.3 0 4 1.4 3.7 3l-2.3 14.5zM154.3 167.6l2.3-14.5c.6-3.5-3-6.4-7.9-6.4a14.5 14.5 0 0 0-9.6 3.4l2-12.4h-7.5l-5 30h7.6l2.3-14.4a10 10 0 0 1 6.9-3.2c2.2 0 4 1.4 3.7 3l-2.4 14.5zM187.5 166l-1.6-1.3a2.8 2.8 0 0 1-1.4.3c-1 0-1.8-.5-1.7-1.3l1.8-10.8c.7-4-3.1-6.3-10.7-6.3a20.4 20.4 0 0 0-9.7 2.3l1 3a13.6 13.6 0 0 1 8.3-2.8c2.3 0 4 1.5 3.7 3.1l-.4 2.2c-9.2 1.1-16.7 2.8-17.5 7.6-.5 3 2.7 5.6 7 5.6 4.8 0 7.8-.8 10.1-2.2a7.1 7.1 0 0 0 5.6 2.2 10.3 10.3 0 0 0 5.5-1.6m-12-4c-.2 1.8-2.5 3-4.6 3-2.3 0-4-1.3-3.7-3 .4-2.5 4.8-5 9.3-5.5zM214.8 167.6l2.4-14.5c.6-3.5-3-6.4-7.9-6.4a14.5 14.5 0 0 0-9.6 3.4l.6-3.4h-7.6l-3.4 21h7.5l2.3-14.4a10.1 10.1 0 0 1 6.9-3.1c2.3 0 4 1.3 3.7 3l-2.4 14.5zM243 165.4l-1-3c-2 2.1-4.4 2.8-8 2.8-4.8 0-6.4-3.7-5.7-8 .8-5 4-8.1 8.4-8.1 3.6 0 6 .6 7.2 2.8l1.9-3a17.4 17.4 0 0 0-8.6-2.2c-8.2 0-15.5 4.6-16.4 10.4s4.8 10.5 12.9 10.5a21.2 21.2 0 0 0 9.3-2.2M274.5 157.1c1-5.7-4.8-10.4-13-10.4s-15.4 4.7-16.4 10.4c-1 6 4.9 10.5 13 10.5a22 22 0 0 0 10.4-2.2l-1-3c-2.2 2-5.1 2.8-9 2.8-4.3 0-6.1-2.8-6-6.9h21.7a7.2 7.2 0 0 0 .3-1.2m-7.4-1.1H253c1.3-4.6 4.4-7 8.3-7s6.2 2.5 6 7M305.4 167.6l5-29.9h-7.6l-1.8 11c-.9-1-3.1-2-6.8-2-8.1 0-15.5 4.7-16.4 10.4s4.8 10.5 13 10.5a12.8 12.8 0 0 0 7.4-2l5.2 2zm-5.8-10.5c-.8 5-4 8.1-8.4 8.1s-6.6-3.2-5.8-8 4-8.2 8.4-8.2 6.6 3.2 5.8 8.1"></path></g></g></svg>